<?xml version="1.0" encoding="utf-8"?>
<!-- Generator: Adobe Illustrator 23.0.1, SVG Export Plug-In . SVG Version: 6.00 Build 0)  -->
<svg version="1.1" id="Layer_1" xmlns="http://www.w3.org/2000/svg" xmlns:xlink="http://www.w3.org/1999/xlink" x="0px" y="0px"
	 viewBox="0 0 300 78" style="enable-background:new 0 0 300 78;" xml:space="preserve">
<style type="text/css">
	.st0{fill:#E02826;}
</style>
<g>
	<g>
		<path class="st0" d="M32.5,32.8C31.5,28.9,29,26,24,26c-7.3,0-10.4,6.5-10.4,13c0,6.6,3.1,13,10.4,13c5.3,0,8.2-4,8.7-8.9h5.8
			C38,51.2,32.3,56.9,24,56.9C13.7,56.9,7.6,48.8,7.6,39c0-9.8,6.1-17.9,16.4-17.9c7.7,0,13.8,4.3,14.5,11.7H32.5z"/>
		<path class="st0" d="M47.5,45.1c0,3.9,2.1,7.3,6.6,7.3c3.2,0,5.1-1.4,6-4.1h5.2c-1.2,5.4-5.8,8.4-11.2,8.4
			c-7.7,0-12.1-5.4-12.1-13c0-7,4.6-13.1,12-13.1c7.8,0,12.6,7,11.7,14.4H47.5z M60.2,41.5C60,38.1,57.7,35,54,35
			c-3.8,0-6.4,2.9-6.5,6.6H60.2z"/>
		<path class="st0" d="M69.8,31.3h5.1v4.8H75c0.6-2.6,3.9-5.5,7.2-5.5c1.2,0,1.6,0.1,2.1,0.1v5.3c-0.8-0.1-1.6-0.2-2.3-0.2
			c-3.7,0-6.7,3-6.7,8.5v11.8h-5.5V31.3z"/>
		<path class="st0" d="M86.1,31.3h4.1v-7.4h5.5v7.4h4.9v4.1h-4.9v13.2c0,2.2,0.2,3.4,2.6,3.4c0.8,0,1.5,0,2.3-0.2V56
			c-1.2,0.1-2.3,0.3-3.5,0.3c-5.7,0-6.7-2.2-6.8-6.3V35.4h-4.1V31.3z"/>
		<path class="st0" d="M101.4,21.9h6.2l8.6,27h0.1l8.8-27h6.1l-11.7,34.1h-6.6L101.4,21.9z"/>
		<path class="st0" d="M151.8,50.6c0,1.3,0.3,1.9,1.3,1.9c0.3,0,0.8,0,1.3-0.1v3.8c-0.8,0.3-2.5,0.6-3.4,0.6c-2.2,0-3.8-0.8-4.2-3
			c-2.2,2.1-5.6,3-8.6,3c-4.4,0-8.5-2.4-8.5-7.2c0-6.2,4.9-7.2,9.5-7.7c3.9-0.7,7.4-0.3,7.4-3.5c0-2.8-2.9-3.3-5.1-3.3
			c-3.1,0-5.2,1.2-5.5,3.9h-5.5c0.4-6.4,5.8-8.2,11.2-8.2c4.8,0,9.9,2,9.9,7.2V50.6z M146.3,43.7c-1.7,1.1-4.3,1.1-6.7,1.5
			c-2.3,0.4-4.4,1.2-4.4,4.1c0,2.4,3.1,3.2,5,3.2c2.4,0,6.1-1.2,6.1-4.7V43.7z"/>
		<path class="st0" d="M179.4,56.1H174v-3.4h-0.1c-1.3,2.5-4.3,4.1-7,4.1c-6.5,0-9.2-3.3-9.2-9.7V31.3h5.5v15.2
			c0,4.4,1.8,5.9,4.7,5.9c4.5,0,6.1-2.9,6.1-6.7V31.3h5.5V56.1z"/>
		<path class="st0" d="M185.2,21.9h5.5v34.1h-5.5V21.9z"/>
		<path class="st0" d="M194.1,31.3h4.1v-7.4h5.5v7.4h4.9v4.1h-4.9v13.2c0,2.2,0.2,3.4,2.6,3.4c0.8,0,1.5,0,2.3-0.2V56
			c-1.2,0.1-2.3,0.3-3.5,0.3c-5.7,0-6.7-2.2-6.8-6.3V35.4h-4.1V31.3z"/>
	</g>
	<g>
		<path d="M217.8,44.5h5.7c2.1,0,3.5,1,3.5,2.9c0,1.2-0.6,2-1.7,2.5v0c1.4,0.3,2.2,1.4,2.2,3c0,1.8-1.3,3.3-4.3,3.3h-5.4V44.5z
			 M219.8,49.4h3.4c1,0,1.7-0.6,1.7-1.6c0-1.2-0.6-1.6-1.7-1.6h-3.4V49.4z M219.8,54.6h3.6c1.2,0,2-0.7,2-1.9c0-1.2-0.7-1.8-2-1.8
			h-3.6V54.6z"/>
		<path d="M232.4,51.7l-4.4-7.1h2.4l3.1,5.3l3.1-5.3h2.3l-4.4,7.1v4.6h-2.1V51.7z"/>
	</g>
	<path id="XMLID_314_" d="M253.1,48.8c0,2.4-1.6,4-4.6,4h-1.7v2.9c0,0.4-0.2,0.5-0.5,0.5h-1.7c-0.3,0-0.5-0.1-0.5-0.5V45.2
		c0-0.3,0.1-0.5,0.5-0.5h3.9C251.6,44.7,253.1,46.4,253.1,48.8z M250.5,48.8c0-0.9-0.6-1.6-2-1.6h-1.7v3.3h1.7
		C249.9,50.4,250.5,49.7,250.5,48.8z"/>
	<path id="XMLID_311_" d="M263.1,56.2h-1.8c-0.4,0-0.5-0.1-0.7-0.5l-0.5-1.4h-4.3l-0.5,1.4c-0.1,0.4-0.3,0.5-0.7,0.5h-1.8
		c-0.4,0-0.4-0.3-0.3-0.5l3.9-10.5c0.1-0.4,0.3-0.5,0.7-0.5h1.7c0.4,0,0.6,0.2,0.7,0.5l3.9,10.5C263.5,55.9,263.5,56.2,263.1,56.2z
		 M259.3,51.9L258,48l-1.3,3.9H259.3z"/>
	<path id="XMLID_309_" d="M271.2,45.2v1.5c0,0.3-0.1,0.5-0.5,0.5h-2.7v8.5c0,0.4-0.2,0.5-0.5,0.5h-1.7c-0.3,0-0.5-0.1-0.5-0.5v-8.5
		h-2.7c-0.4,0-0.5-0.2-0.5-0.5v-1.5c0-0.3,0.1-0.5,0.5-0.5h8.1C271.1,44.7,271.2,44.9,271.2,45.2z"/>
	<path id="XMLID_307_" d="M281.6,56.2h-2.1c-0.4,0-0.6-0.2-0.9-0.5l-1.9-2.8c-0.2-0.2-0.2-0.4-0.2-0.9v-1.4c0-0.3,0.1-0.5,0.5-0.5
		h0.3c0.9,0,1.7-0.6,1.7-1.4c0-0.9-0.7-1.5-1.6-1.5h-2.3v8.5c0,0.4-0.2,0.5-0.5,0.5H273c-0.3,0-0.5-0.1-0.5-0.5V45.2
		c0-0.3,0.1-0.5,0.5-0.5h4.4c1.9,0,2.7,0.4,3.5,1.1c0.6,0.6,1,1.6,1,2.7c0,1.8-1.3,3.1-2.4,3.5l2.5,3.6
		C282.1,55.9,282,56.2,281.6,56.2z"/>
	<g id="XMLID_302_">
		<path id="XMLID_305_" d="M292.1,44.9h-0.3v-0.1h0.8v0.1h-0.3v1h-0.1V44.9z"/>
		<path id="XMLID_303_" d="M293.6,45.4c0-0.2,0-0.3,0-0.5h0c0,0.1-0.1,0.3-0.1,0.4l-0.2,0.5h-0.1l-0.2-0.5c-0.1-0.2-0.1-0.3-0.1-0.4
			h0c0,0.1,0,0.3,0,0.5l0,0.5h-0.1l0.1-1.1h0.2l0.2,0.5c0,0.1,0.1,0.3,0.1,0.4h0c0-0.1,0.1-0.2,0.1-0.4l0.2-0.5h0.2l0.1,1.1h-0.1
			L293.6,45.4z"/>
	</g>
	<polygon class="st0" points="285.3,56.2 290.8,56.2 288.1,48 	"/>
	<path d="M293.5,55.7l-3.9-10.5c-0.2-0.4-0.3-0.5-0.7-0.5h-1.7c-0.4,0-0.6,0.2-0.7,0.5l-3.9,10.5c-0.1,0.2-0.1,0.5,0.3,0.5h1.8h0.2
		h0.3l2.8-8.2l2.8,8.2h0.5h0h1.8C293.6,56.2,293.6,55.9,293.5,55.7z"/>
</g>
</svg>
